<svg width="24" height="25" viewBox="0 0 24 25" fill="none" xmlns="http://www.w3.org/2000/svg">
<g clip-path="url(#clip0_518_958)">
<path d="M12 0.394775C8.74 0.394775 8.333 0.409775 7.053 0.466775C5.775 0.526775 4.905 0.727775 4.14 1.02478C3.351 1.33078 2.681 1.74178 2.014 2.40878C1.347 3.07578 0.935 3.74478 0.63 4.53478C0.333 5.29978 0.131 6.16978 0.072 7.44778C0.012 8.72778 0 9.13478 0 12.3948C0 15.6548 0.015 16.0618 0.072 17.3418C0.132 18.6188 0.333 19.4898 0.63 20.2548C0.936 21.0428 1.347 21.7138 2.014 22.3808C2.681 23.0468 3.35 23.4598 4.14 23.7648C4.906 24.0608 5.776 24.2638 7.053 24.3228C8.333 24.3828 8.74 24.3948 12 24.3948C15.26 24.3948 15.667 24.3798 16.947 24.3228C18.224 24.2628 19.095 24.0608 19.86 23.7648C20.648 23.4588 21.319 23.0468 21.986 22.3808C22.652 21.7138 23.065 21.0458 23.37 20.2548C23.666 19.4898 23.869 18.6188 23.928 17.3418C23.988 16.0618 24 15.6548 24 12.3948C24 9.13478 23.985 8.72778 23.928 7.44778C23.868 6.17078 23.666 5.29878 23.37 4.53478C23.064 3.74578 22.652 3.07578 21.986 2.40878C21.319 1.74178 20.651 1.32978 19.86 1.02478C19.095 0.727775 18.224 0.525775 16.947 0.466775C15.667 0.406775 15.26 0.394775 12 0.394775ZM12 2.55478C15.203 2.55478 15.585 2.57078 16.85 2.62578C18.02 2.68078 18.655 2.87478 19.077 3.04078C19.639 3.25778 20.037 3.51778 20.459 3.93678C20.878 4.35678 21.138 4.75578 21.355 5.31778C21.519 5.73978 21.715 6.37478 21.768 7.54478C21.825 8.81078 21.838 9.19077 21.838 12.3948C21.838 15.5988 21.823 15.9798 21.764 17.2448C21.703 18.4148 21.508 19.0498 21.343 19.4718C21.119 20.0338 20.864 20.4318 20.444 20.8538C20.025 21.2728 19.62 21.5328 19.064 21.7498C18.644 21.9138 17.999 22.1098 16.829 22.1628C15.555 22.2198 15.18 22.2328 11.97 22.2328C8.759 22.2328 8.384 22.2178 7.111 22.1588C5.94 22.0978 5.295 21.9028 4.875 21.7378C4.306 21.5138 3.915 21.2588 3.496 20.8388C3.075 20.4198 2.806 20.0148 2.596 19.4588C2.431 19.0388 2.237 18.3938 2.176 17.2238C2.131 15.9638 2.115 15.5748 2.115 12.3798C2.115 9.18377 2.131 8.79378 2.176 7.51878C2.237 6.34878 2.431 5.70478 2.596 5.28478C2.806 4.71478 3.075 4.32478 3.496 3.90378C3.915 3.48478 4.306 3.21478 4.875 3.00578C5.295 2.83978 5.926 2.64478 7.096 2.58478C8.371 2.53978 8.746 2.52478 11.955 2.52478L12 2.55478ZM12 6.23278C8.595 6.23278 5.838 8.99277 5.838 12.3948C5.838 15.7998 8.598 18.5568 12 18.5568C15.405 18.5568 18.162 15.7968 18.162 12.3948C18.162 8.98978 15.402 6.23278 12 6.23278ZM12 16.3948C9.79 16.3948 8 14.6048 8 12.3948C8 10.1848 9.79 8.39478 12 8.39478C14.21 8.39478 16 10.1848 16 12.3948C16 14.6048 14.21 16.3948 12 16.3948ZM19.846 5.98978C19.846 6.78478 19.2 7.42978 18.406 7.42978C17.611 7.42978 16.966 6.78378 16.966 5.98978C16.966 5.19578 17.612 4.55078 18.406 4.55078C19.199 4.54978 19.846 5.19578 19.846 5.98978Z" fill="#98A2B3"/>
</g>
<defs>
<clipPath id="clip0_518_958">
<rect width="24" height="24" fill="white" transform="translate(0 0.394775)"/>
</clipPath>
</defs>
</svg>
