<svg width="24" height="25" viewBox="0 0 24 25" fill="none" xmlns="http://www.w3.org/2000/svg">
<g clip-path="url(#clip0_518_960)">
<path d="M20.447 20.8468H16.893V15.2778C16.893 13.9498 16.866 12.2408 15.041 12.2408C13.188 12.2408 12.905 13.6858 12.905 15.1798V20.8468H9.351V9.39478H12.765V10.9558H12.811C13.288 10.0558 14.448 9.10578 16.181 9.10578C19.782 9.10578 20.448 11.4758 20.448 14.5608L20.447 20.8468ZM5.337 7.82778C4.193 7.82778 3.274 6.90178 3.274 5.76278C3.274 4.62478 4.194 3.69978 5.337 3.69978C6.477 3.69978 7.401 4.62478 7.401 5.76278C7.401 6.90178 6.476 7.82778 5.337 7.82778ZM7.119 20.8468H3.555V9.39478H7.119V20.8468ZM22.225 0.394775H1.771C0.792 0.394775 0 1.16878 0 2.12378V22.6658C0 23.6218 0.792 24.3948 1.771 24.3948H22.222C23.2 24.3948 24 23.6218 24 22.6658V2.12378C24 1.16878 23.2 0.394775 22.222 0.394775H22.225Z" fill="#98A2B3"/>
</g>
<defs>
<clipPath id="clip0_518_960">
<rect width="24" height="24" fill="white" transform="translate(0 0.394775)"/>
</clipPath>
</defs>
</svg>
