<svg width="120" height="120" viewBox="0 0 120 120" fill="none" xmlns="http://www.w3.org/2000/svg">
<mask id="path-1-inside-1_518_883" fill="white">
<path d="M0 15C0 6.71573 6.71573 0 15 0H105C113.284 0 120 6.71573 120 15V105C120 113.284 113.284 120 105 120H15C6.71573 120 0 113.284 0 105V15Z"/>
</mask>
<path d="M0 15C0 6.71573 6.71573 0 15 0H105C113.284 0 120 6.71573 120 15V105C120 113.284 113.284 120 105 120H15C6.71573 120 0 113.284 0 105V15Z" fill="url(#paint0_linear_518_883)" fill-opacity="0.6"/>
<path d="M15 1.5H105V-1.5H15V1.5ZM118.5 15V105H121.5V15H118.5ZM105 118.5H15V121.5H105V118.5ZM1.5 105V15H-1.5V105H1.5ZM15 118.5C7.54416 118.5 1.5 112.456 1.5 105H-1.5C-1.5 114.113 5.8873 121.5 15 121.5V118.5ZM118.5 105C118.5 112.456 112.456 118.5 105 118.5V121.5C114.113 121.5 121.5 114.113 121.5 105H118.5ZM105 1.5C112.456 1.5 118.5 7.54416 118.5 15H121.5C121.5 5.8873 114.113 -1.5 105 -1.5V1.5ZM15 -1.5C5.8873 -1.5 -1.5 5.8873 -1.5 15H1.5C1.5 7.54416 7.54416 1.5 15 1.5V-1.5Z" fill="url(#paint1_radial_518_883)" fill-opacity="0.1" mask="url(#path-1-inside-1_518_883)"/>
<path d="M15 1.5H105V-1.5H15V1.5ZM118.5 15V105H121.5V15H118.5ZM105 118.5H15V121.5H105V118.5ZM1.5 105V15H-1.5V105H1.5ZM15 118.5C7.54416 118.5 1.5 112.456 1.5 105H-1.5C-1.5 114.113 5.8873 121.5 15 121.5V118.5ZM118.5 105C118.5 112.456 112.456 118.5 105 118.5V121.5C114.113 121.5 121.5 114.113 121.5 105H118.5ZM105 1.5C112.456 1.5 118.5 7.54416 118.5 15H121.5C121.5 5.8873 114.113 -1.5 105 -1.5V1.5ZM15 -1.5C5.8873 -1.5 -1.5 5.8873 -1.5 15H1.5C1.5 7.54416 7.54416 1.5 15 1.5V-1.5Z" fill="url(#paint2_radial_518_883)" mask="url(#path-1-inside-1_518_883)"/>
<mask id="path-3-inside-2_518_883" fill="white">
<path d="M0 15C0 6.71573 6.71573 0 15 0H105C113.284 0 120 6.71573 120 15V105C120 113.284 113.284 120 105 120H15C6.71573 120 0 113.284 0 105V15Z"/>
</mask>
<path d="M0 15C0 6.71573 6.71573 0 15 0H105C113.284 0 120 6.71573 120 15V105C120 113.284 113.284 120 105 120H15C6.71573 120 0 113.284 0 105V15Z" fill="url(#paint3_linear_518_883)"/>
<path d="M0 0H120H0ZM120 105C120 114.113 112.613 121.5 103.5 121.5H16.5C7.3873 121.5 0 114.113 0 105C0 112.456 6.71573 118.5 15 118.5H105C113.284 118.5 120 112.456 120 105ZM0 120V0V120ZM120 0V120V0Z" fill="url(#paint4_linear_518_883)" fill-opacity="0.2" mask="url(#path-3-inside-2_518_883)"/>
<path d="M36 42C37.5913 42 39.1174 41.3679 40.2426 40.2426C41.3679 39.1174 42 37.5913 42 36C42 34.4087 41.3679 32.8826 40.2426 31.7574C39.1174 30.6321 37.5913 30 36 30C34.4087 30 32.8826 30.6321 31.7574 31.7574C30.6321 32.8826 30 34.4087 30 36C30 37.5913 30.6321 39.1174 31.7574 40.2426C32.8826 41.3679 34.4087 42 36 42ZM39 87C41.3869 87 43.6761 86.0518 45.364 84.364C47.0518 82.6761 48 80.3869 48 78C48 75.6131 47.0518 73.3239 45.364 71.636C43.6761 69.9482 41.3869 69 39 69C36.6131 69 34.3239 69.9482 32.636 71.636C30.9482 73.3239 30 75.6131 30 78C30 80.3869 30.9482 82.6761 32.636 84.364C34.3239 86.0518 36.6131 87 39 87ZM81 90C83.3869 90 85.6761 89.0518 87.364 87.364C89.0518 85.6761 90 83.3869 90 81C90 78.6131 89.0518 76.3239 87.364 74.636C85.6761 72.9482 83.3869 72 81 72C78.6131 72 76.3239 72.9482 74.636 74.636C72.9482 76.3239 72 78.6131 72 81C72 83.3869 72.9482 85.6761 74.636 87.364C76.3239 89.0518 78.6131 90 81 90ZM57 66C60.1826 66 63.2348 64.7357 65.4853 62.4853C67.7357 60.2348 69 57.1826 69 54C69 50.8174 67.7357 47.7652 65.4853 45.5147C63.2348 43.2643 60.1826 42 57 42C53.8174 42 50.7652 43.2643 48.5147 45.5147C46.2643 47.7652 45 50.8174 45 54C45 57.1826 46.2643 60.2348 48.5147 62.4853C50.7652 64.7357 53.8174 66 57 66ZM75 42C76.5913 42 78.1174 41.3679 79.2426 40.2426C80.3679 39.1174 81 37.5913 81 36C81 34.4087 80.3679 32.8826 79.2426 31.7574C78.1174 30.6321 76.5913 30 75 30C73.4087 30 71.8826 30.6321 70.7574 31.7574C69.6321 32.8826 69 34.4087 69 36C69 37.5913 69.6321 39.1174 70.7574 40.2426C71.8826 41.3679 73.4087 42 75 42Z" stroke="#FFBF00" stroke-opacity="0.3" stroke-width="4" stroke-linecap="round" stroke-linejoin="round"/>
<defs>
<linearGradient id="paint0_linear_518_883" x1="7" y1="120" x2="120" y2="-2" gradientUnits="userSpaceOnUse">
<stop offset="0.0668323" stop-color="#1A1A1A"/>
<stop offset="1" stop-opacity="0.69"/>
</linearGradient>
<radialGradient id="paint1_radial_518_883" cx="0" cy="0" r="1" gradientUnits="userSpaceOnUse" gradientTransform="translate(57.5 120) scale(39.5 25.6988)">
<stop stop-color="#FFBF00"/>
<stop offset="1" stop-color="#0D0D0D"/>
</radialGradient>
<radialGradient id="paint2_radial_518_883" cx="0" cy="0" r="1" gradientUnits="userSpaceOnUse" gradientTransform="translate(56.5 3.00001) rotate(65.0209) scale(137.347 147.717)">
<stop stop-color="white"/>
<stop offset="1" stop-color="white" stop-opacity="0"/>
</radialGradient>
<linearGradient id="paint3_linear_518_883" x1="10" y1="115" x2="121.5" y2="-10.5" gradientUnits="userSpaceOnUse">
<stop stop-color="#1A1A1A"/>
<stop offset="1" stop-color="#151515" stop-opacity="0"/>
</linearGradient>
<linearGradient id="paint4_linear_518_883" x1="60" y1="0" x2="60" y2="120" gradientUnits="userSpaceOnUse">
<stop/>
<stop offset="1" stop-opacity="0"/>
</linearGradient>
</defs>
</svg>
