<svg width="24" height="24" viewBox="0 0 24 24" fill="none" xmlns="http://www.w3.org/2000/svg">
<mask id="path-1-inside-1_518_899" fill="white">
<path d="M15.05 5C16.0267 5.19057 16.9244 5.66826 17.6281 6.37194C18.3317 7.07561 18.8094 7.97327 19 8.95M15.05 1C17.0793 1.22544 18.9716 2.13417 20.4162 3.57701C21.8609 5.01984 22.772 6.91101 23 8.94M22 16.92V19.92C22.0011 20.1985 21.9441 20.4742 21.8325 20.7293C21.7209 20.9845 21.5573 21.2136 21.3521 21.4019C21.1469 21.5901 20.9046 21.7335 20.6408 21.8227C20.3769 21.9119 20.0974 21.9451 19.82 21.92C16.7428 21.5856 13.787 20.5341 11.19 18.85C8.77383 17.3147 6.72534 15.2662 5.19 12.85C3.49998 10.2412 2.44824 7.27099 2.12 4.18C2.09501 3.90347 2.12788 3.62476 2.2165 3.36162C2.30513 3.09849 2.44757 2.85669 2.63477 2.65162C2.82196 2.44655 3.04981 2.28271 3.30379 2.17052C3.55778 2.05833 3.83234 2.00026 4.11 2H7.11C7.59531 1.99522 8.06579 2.16708 8.43376 2.48353C8.80173 2.79999 9.04208 3.23945 9.11 3.72C9.23663 4.68007 9.47145 5.62273 9.81 6.53C9.94455 6.88792 9.97367 7.27691 9.89391 7.65088C9.81415 8.02485 9.62887 8.36811 9.36 8.64L8.09 9.91C9.51356 12.4135 11.5865 14.4864 14.09 15.91L15.36 14.64C15.6319 14.3711 15.9752 14.1858 16.3491 14.1061C16.7231 14.0263 17.1121 14.0555 17.47 14.19C18.3773 14.5286 19.3199 14.7634 20.28 14.89C20.7658 14.9585 21.2094 15.2032 21.5265 15.5775C21.8437 15.9518 22.0122 16.4296 22 16.92Z"/>
</mask>
<path d="M15.3372 3.52776C14.5241 3.36912 13.7364 3.89966 13.5778 4.71276C13.4191 5.52586 13.9497 6.3136 14.7628 6.47224L15.3372 3.52776ZM17.5278 9.23724C17.6864 10.0503 18.4741 10.5809 19.2872 10.4222C20.1003 10.2636 20.6309 9.47585 20.4722 8.66276L17.5278 9.23724ZM15.2156 -0.490829C14.3923 -0.582298 13.6506 0.0110189 13.5592 0.834381C13.4677 1.65774 14.061 2.39936 14.8844 2.49083L15.2156 -0.490829ZM21.5094 9.1075C21.6019 9.93074 22.3443 10.5231 23.1675 10.4306C23.9907 10.3381 24.5831 9.59575 24.4906 8.7725L21.5094 9.1075ZM22 16.92L20.5005 16.8828C20.5002 16.8952 20.5 16.9076 20.5 16.92H22ZM22 19.92H20.5L20.5 19.9261L22 19.92ZM19.82 21.92L19.658 23.4112C19.667 23.4122 19.676 23.4131 19.685 23.4139L19.82 21.92ZM11.19 18.85L12.0062 17.5914L11.9945 17.584L11.19 18.85ZM5.19 12.85L6.45607 12.0455L6.44892 12.0345L5.19 12.85ZM2.12 4.18L0.626089 4.315C0.626795 4.32281 0.627561 4.33061 0.628389 4.3384L2.12 4.18ZM4.11 2V0.499999L4.10859 0.500001L4.11 2ZM7.11 2V3.5C7.11492 3.5 7.11984 3.49998 7.12476 3.49993L7.11 2ZM9.11 3.72L10.5972 3.52386L10.5952 3.51007L9.11 3.72ZM9.81 6.53L8.40465 7.05441L8.40592 7.05779L9.81 6.53ZM9.36 8.64L10.4207 9.70068L10.4266 9.69471L9.36 8.64ZM8.09 9.91L7.02934 8.84934C6.55187 9.32681 6.45229 10.0645 6.78606 10.6514L8.09 9.91ZM14.09 15.91L13.3486 17.2139C13.9355 17.5477 14.6732 17.4481 15.1507 16.9707L14.09 15.91ZM15.36 14.64L14.3053 13.5734L14.2993 13.5793L15.36 14.64ZM17.47 14.19L16.9422 15.5941L16.9456 15.5953L17.47 14.19ZM20.28 14.89L20.4896 13.4046L20.4761 13.4029L20.28 14.89ZM14.7628 6.47224C15.4465 6.60564 16.0748 6.94002 16.5674 7.4326L18.6887 5.31128C17.7739 4.39649 16.607 3.77549 15.3372 3.52776L14.7628 6.47224ZM16.5674 7.4326C17.06 7.92517 17.3944 8.55353 17.5278 9.23724L20.4722 8.66276C20.2245 7.393 19.6035 6.22606 18.6887 5.31128L16.5674 7.4326ZM14.8844 2.49083C16.5754 2.67869 18.1524 3.43597 19.3563 4.63833L21.4762 2.51568C19.7908 0.832375 17.5831 -0.22782 15.2156 -0.490829L14.8844 2.49083ZM19.3563 4.63833C20.5601 5.8407 21.3194 7.41667 21.5094 9.1075L24.4906 8.7725C24.2246 6.40535 23.1617 4.19899 21.4762 2.51568L19.3563 4.63833ZM20.5 16.92V19.92H23.5V16.92H20.5ZM20.5 19.9261C20.5003 19.9957 20.486 20.0646 20.4581 20.1284L23.2069 21.3303C23.4021 20.8837 23.502 20.4013 23.5 19.9139L20.5 19.9261ZM20.4581 20.1284C20.4303 20.1922 20.3893 20.2495 20.338 20.2966L22.3661 22.5072C22.7253 22.1777 23.0116 21.7768 23.2069 21.3303L20.4581 20.1284ZM20.338 20.2966C20.2867 20.3436 20.2262 20.3795 20.1602 20.4018L21.1213 23.2436C21.583 23.0875 22.007 22.8367 22.3661 22.5072L20.338 20.2966ZM20.1602 20.4018C20.0942 20.4241 20.0244 20.4324 19.955 20.4261L19.685 23.4139C20.1704 23.4578 20.6596 23.3998 21.1213 23.2436L20.1602 20.4018ZM19.982 20.4288C17.1381 20.1198 14.4063 19.148 12.0062 17.5915L10.3739 20.1085C13.1677 21.9203 16.3476 23.0515 19.658 23.4112L19.982 20.4288ZM11.9945 17.584C9.76417 16.1667 7.87326 14.2758 6.45602 12.0455L3.92398 13.6545C5.57742 16.2565 7.78349 18.4626 10.3855 20.116L11.9945 17.584ZM6.44892 12.0345C4.887 9.62339 3.91498 6.87831 3.61161 4.0216L0.628389 4.3384C0.981511 7.66368 2.11296 10.859 3.93108 13.6656L6.44892 12.0345ZM3.61391 4.045C3.60767 3.97587 3.61588 3.90619 3.63804 3.84041L0.794965 2.88284C0.63987 3.34333 0.582358 3.83107 0.626089 4.315L3.61391 4.045ZM3.63804 3.84041C3.6602 3.77462 3.69581 3.71417 3.74261 3.6629L1.52693 1.64034C1.19934 1.99921 0.950059 2.42236 0.794965 2.88284L3.63804 3.84041ZM3.74261 3.6629C3.78941 3.61164 3.84637 3.57068 3.90986 3.54263L2.69772 0.798414C2.25325 0.994742 1.85452 1.28147 1.52693 1.64034L3.74261 3.6629ZM3.90986 3.54263C3.97336 3.51458 4.042 3.50006 4.11141 3.5L4.10859 0.500001C3.62269 0.500458 3.1422 0.602086 2.69772 0.798414L3.90986 3.54263ZM4.11 3.5H7.11V0.5H4.11V3.5ZM7.12476 3.49993C7.24609 3.49873 7.36371 3.5417 7.45571 3.62081L9.41182 1.34625C8.76788 0.79246 7.94453 0.491714 7.09524 0.500073L7.12476 3.49993ZM7.45571 3.62081C7.5477 3.69992 7.60778 3.80979 7.62476 3.92993L10.5952 3.51007C10.4764 2.6691 10.0558 1.90005 9.41182 1.34625L7.45571 3.62081ZM7.62288 3.91614C7.7643 4.98836 8.02656 6.04115 8.40466 7.05441L11.2153 6.00559C10.9163 5.20431 10.709 4.37177 10.5971 3.52386L7.62288 3.91614ZM8.40592 7.05779C8.43956 7.14727 8.44684 7.24452 8.4269 7.33801L11.3609 7.96375C11.5005 7.30931 11.4495 6.62858 11.2141 6.00221L8.40592 7.05779ZM8.4269 7.33801C8.40696 7.4315 8.36064 7.51732 8.29342 7.58529L10.4266 9.69471C10.8971 9.2189 11.2213 8.61819 11.3609 7.96375L8.4269 7.33801ZM8.29934 7.57934L7.02934 8.84934L9.15066 10.9707L10.4207 9.70066L8.29934 7.57934ZM6.78606 10.6514C8.34308 13.3897 10.6103 15.6569 13.3486 17.2139L14.8314 14.6061C12.5626 13.316 10.684 11.4374 9.39394 9.16856L6.78606 10.6514ZM15.1507 16.9707L16.4207 15.7007L14.2993 13.5793L13.0293 14.8493L15.1507 16.9707ZM16.4147 15.7066C16.4827 15.6394 16.5685 15.593 16.662 15.5731L16.0363 12.6391C15.3818 12.7787 14.7811 13.1029 14.3053 13.5734L16.4147 15.7066ZM16.662 15.5731C16.7555 15.5532 16.8527 15.5604 16.9422 15.5941L17.9978 12.7859C17.3714 12.5505 16.6907 12.4995 16.0363 12.6391L16.662 15.5731ZM16.9456 15.5953C17.9589 15.9734 19.0116 16.2357 20.0839 16.3771L20.4761 13.4029C19.6282 13.291 18.7957 13.0837 17.9944 12.7847L16.9456 15.5953ZM20.0705 16.3753C20.1919 16.3924 20.3028 16.4536 20.3821 16.5472L22.671 14.6078C22.116 13.9528 21.3396 13.5246 20.4895 13.4047L20.0705 16.3753ZM20.3821 16.5472C20.4614 16.6407 20.5035 16.7602 20.5005 16.8828L23.4995 16.9572C23.5208 16.099 23.226 15.2628 22.671 14.6078L20.3821 16.5472Z" fill="#1A1A1A" mask="url(#path-1-inside-1_518_899)"/>
</svg>
