<svg width="41" height="40" viewBox="0 0 41 40" fill="none" xmlns="http://www.w3.org/2000/svg">
<g clip-path="url(#clip0_332_1852)">
<path d="M18.8639 0.0642757C14.7788 0.503046 11.5561 1.72858 8.462 4.03591C7.22134 4.95884 5.46626 6.71392 4.52063 7.96972C2.34947 10.8822 1.07855 14.0444 0.632215 17.6454C0.48848 18.8406 0.48848 21.1026 0.632215 22.3432C0.927251 24.9078 1.76697 27.5026 2.9925 29.6964L3.40101 30.4302H3.95326H4.51307L4.0743 29.5603C1.23742 23.8941 2.45538 16.9569 7.07004 12.5012C11.4956 8.22692 18.0923 7.16782 23.6299 9.84584C29.576 12.713 32.8667 19.1508 31.7244 25.6567C31.4899 27.0184 30.915 28.7054 30.3173 29.8099C30.1585 30.1201 30.0223 30.3773 30.0223 30.4C30.0223 30.4151 31.7244 30.4227 33.8124 30.4151L37.6024 30.3924L37.9807 29.7116C39.2516 27.4345 40.1291 24.6279 40.3939 22.0104C40.5074 20.8681 40.4469 18.0917 40.2804 17.0931C39.5845 12.8038 37.8369 9.23307 34.932 6.19194C31.8303 2.94655 27.9419 0.934252 23.3273 0.208012C22.5934 0.0869713 19.5372 -0.00380898 18.8639 0.0642757ZM35.7641 13.4922C37.1031 14.1579 37.3225 15.9508 36.1878 16.9494C35.0152 17.9782 33.2147 17.4335 32.776 15.9281C32.5566 15.1716 32.8138 14.3092 33.4038 13.7872C34.0696 13.2047 34.9622 13.0912 35.7641 13.4922Z" fill="white" fill-opacity="0.79"/>
<path d="M34.0393 13.9082C33.018 14.4227 32.8365 15.7919 33.6838 16.5711C34.3268 17.1688 35.2195 17.1915 35.8927 16.6392C36.2634 16.3366 36.4526 15.8978 36.4526 15.3532C36.4526 14.0898 35.1968 13.3333 34.0393 13.9082ZM35.4767 14.4605C35.7793 14.7707 35.7641 15.0279 35.4237 15.3456C35.28 15.4893 35.1816 15.6028 35.2195 15.6028C35.2875 15.6028 35.7717 16.3593 35.7717 16.4577C35.7717 16.4879 35.6582 16.5106 35.5145 16.5106C35.28 16.5106 35.2346 16.4728 35.0228 16.1021C34.7958 15.7087 34.6748 15.6028 34.4403 15.6028C34.357 15.6028 34.3344 15.7163 34.3344 16.0643V16.5182L34.0923 16.4955L33.8426 16.4728L33.8199 15.4591C33.8124 14.8993 33.8199 14.3924 33.8351 14.3394C33.8653 14.2714 34.0696 14.2411 34.5613 14.2411C35.227 14.2411 35.2648 14.2487 35.4767 14.4605Z" fill="white" fill-opacity="0.79"/>
<path d="M13.8863 17.0856C12.6684 17.305 11.7152 17.8799 11.0948 18.765C10.5955 19.4837 10.3913 20.6336 10.6107 21.5036C10.8755 22.5551 11.6168 23.2435 13.2584 23.9773C14.4461 24.5069 14.7714 24.7338 14.8925 25.097C15.006 25.445 14.9303 25.9669 14.7336 26.2317C14.0981 27.0336 11.9194 27.0336 10.4594 26.2317L9.99791 25.9745L9.57427 27.0109C9.33219 27.5783 9.14307 28.0851 9.14307 28.1381C9.14307 28.2743 10.1568 28.7433 10.8452 28.9249C11.2915 29.0459 11.7606 29.0989 12.623 29.1215C13.6367 29.1518 13.8863 29.1367 14.4688 29.0005C16.5265 28.5088 17.7142 26.9958 17.5932 25.0213C17.51 23.6596 16.8442 22.8199 15.2707 22.0937C13.3341 21.201 13.0769 21.0194 13.0769 20.5428C13.0769 19.5972 14.1284 19.0979 15.6641 19.3022C16.0348 19.3476 16.6627 19.4913 17.0636 19.6199C17.457 19.7485 17.805 19.8317 17.8277 19.8015C17.8731 19.7636 18.2135 17.827 18.2211 17.6C18.2211 17.4866 17.1847 17.2067 16.292 17.0705C15.4447 16.9419 14.6504 16.9494 13.8863 17.0856Z" fill="white" fill-opacity="0.79"/>
<path d="M7.25897 17.6605C7.21358 17.9253 6.84289 20.278 6.42682 22.9031C6.01074 25.5206 5.62493 27.9641 5.56441 28.3272L5.4585 28.9929H6.72942H7.99277L8.03817 28.7887C8.06086 28.6676 8.47694 26.088 8.95353 23.0544C9.43013 20.0133 9.83864 17.4563 9.86133 17.3579L9.89916 17.1915H8.62067H7.34218L7.25897 17.6605Z" fill="white" fill-opacity="0.79"/>
<path d="M20.006 17.3958C19.9833 17.5168 19.8623 18.2506 19.7337 19.0449C19.2041 22.4567 18.2207 28.6676 18.1828 28.8189L18.145 28.9929H19.4235C20.6869 28.9929 20.702 28.9929 20.7398 28.8189C20.7625 28.7281 20.9289 27.722 21.1029 26.5872C21.2845 25.4601 21.4585 24.5296 21.4888 24.5296C21.693 24.5296 23.2438 26.7764 24.0155 28.1759L24.4618 28.9929H25.9143H27.3743L27.2987 28.8114C27.1701 28.4709 26.4741 27.1092 26.0807 26.4511C25.468 25.4071 24.7115 24.3177 24.0079 23.4856L23.3724 22.7215L26.1866 19.9603L29.0008 17.1915H27.3441H25.6949L23.8869 18.939C22.7597 20.0284 22.0788 20.6411 22.0788 20.5579C22.0788 20.4293 22.5025 17.6 22.563 17.3201C22.5932 17.1991 22.4949 17.1915 21.3223 17.1915H20.0514L20.006 17.3958Z" fill="white" fill-opacity="0.79"/>
<path d="M29.4325 31.3154C29.3568 31.4364 29.266 31.5726 29.2358 31.618C29.1904 31.6936 29.9544 31.7163 32.9578 31.7163H36.7327L36.9369 31.4137L37.1336 31.1111H33.3587H29.5762L29.4325 31.3154Z" fill="white" fill-opacity="0.79"/>
<path d="M4.88375 32.5106C5.05018 32.8057 6.24545 34.0917 6.94143 34.7196C10.1793 37.6548 13.8861 39.3494 18.2587 39.8941C19.227 40.0151 21.7386 40.0151 22.722 39.8941C25.1958 39.5839 27.1703 39.0014 29.3793 37.9196C31.0133 37.1177 32.3069 36.2402 33.8426 34.8936C34.5613 34.2581 35.9154 32.8284 36.097 32.5031C36.1499 32.4123 35.6128 32.3972 32.4053 32.3972H28.6455L27.889 33.1915C24.2956 36.9589 19.1211 38.5399 14.0677 37.4203C11.1778 36.7773 8.39392 35.1811 6.44971 33.0402L5.8672 32.3972H5.34522C4.90645 32.3972 4.83079 32.4123 4.88375 32.5106Z" fill="white" fill-opacity="0.79"/>
</g>
<defs>
<clipPath id="clip0_332_1852">
<rect width="40" height="40" fill="white" transform="translate(0.5)"/>
</clipPath>
</defs>
</svg>
