<svg width="155" height="40" viewBox="0 0 155 40" fill="none" xmlns="http://www.w3.org/2000/svg">
<path d="M15.3069 2.65636C14.998 3.04246 11.2451 11.8147 11.2451 12.139C11.2451 12.7722 11.4614 12.8185 14.8745 12.8185C18.1795 12.8185 18.5038 12.8649 18.5038 13.4054C18.5038 13.529 17.6699 15.5058 16.6506 17.7915C15.6312 20.0927 14.7973 22.1622 14.7973 22.4093C14.7973 22.6873 14.9054 22.9035 15.0907 23.0116C15.4768 23.2124 36.388 23.2278 36.9131 23.027C37.1911 22.9189 37.6853 21.9459 39.3224 18.2857C40.4498 15.7374 41.361 13.529 41.361 13.3591C41.361 12.6486 41.4845 12.6641 31.3687 12.6641C22.0868 12.6641 21.7471 12.6486 21.6081 12.3707C21.4691 12.139 21.8243 11.2123 23.3687 7.722C24.4343 5.31273 25.2992 3.24324 25.2992 3.0888C25.2992 2.50192 25.083 2.47104 20.1872 2.47104C16.5888 2.47104 15.415 2.51737 15.3069 2.65636Z" fill="white" fill-opacity="0.7"/>
<path d="M48.5579 13.1583C48.0946 13.5598 42.7046 25.5907 41.9479 27.8764C41.4536 29.4054 41.3301 31.2123 41.6544 32.3706C41.9015 33.3127 42.6428 34.2239 43.554 34.7336C45.1911 35.6757 45.2374 35.6757 58.5656 35.6757H70.6892L70.9826 35.305C71.137 35.1042 71.5386 34.3011 71.8629 33.5289C72.3417 32.3706 72.4035 32.0926 72.249 31.8919C72.0791 31.6911 71.1062 31.6602 65.0058 31.6602C60.8822 31.6602 57.7471 31.5984 57.4382 31.5058C56.7587 31.3204 56.2336 30.8108 56.11 30.2548C55.9247 29.4517 56.4652 28.0463 59.6621 20.8031C61.5 16.6486 62.8282 13.4363 62.7973 13.2355L62.7509 12.8957L55.8475 12.8494L48.944 12.8185L48.5579 13.1583Z" fill="white" fill-opacity="0.7"/>
<path d="M82.7819 13.0811C82.5811 13.2509 80.6197 17.4826 77.8707 23.7065C75.3533 29.4054 73.222 34.2394 73.1448 34.4865C73.0521 34.7181 73.0367 35.0888 73.083 35.2896L73.1911 35.6911L75.4459 35.6448L77.7162 35.5984L79.5849 31.4286C80.6042 29.1274 81.5154 27.0888 81.6081 26.888C81.7471 26.5482 81.9942 26.7953 85.2529 30.9035C87.2452 33.4208 88.9131 35.3822 89.1602 35.4903C89.7471 35.7529 92.9749 35.7374 93.639 35.4594C94.1023 35.2587 96.2027 33.9305 104.929 28.3089L107.569 26.5946L105.747 30.6872C104.728 32.9421 103.909 34.9807 103.909 35.2278V35.6757H110.056H116.218L116.527 35.3359C117.006 34.7953 126.334 13.6834 126.272 13.2509L126.226 12.8957L121.994 12.8494C118.612 12.8185 117.593 12.8648 116.975 13.0347C116.465 13.1892 112.604 15.4903 106.18 19.4594C100.681 22.8571 96.1255 25.637 96.0637 25.637C96.0019 25.637 94.1486 22.888 91.9556 19.5212C89.7471 16.1544 87.7703 13.2818 87.5541 13.1428C87.2606 12.9575 86.7046 12.8803 85.1448 12.8494C83.3687 12.8031 83.0753 12.834 82.7819 13.0811Z" fill="white" fill-opacity="0.7"/>
<path d="M129.793 13.1583C129.314 13.5753 123.399 26.8108 122.967 28.417C122.813 28.9884 122.704 30.0077 122.689 30.749C122.689 31.9382 122.735 32.1853 123.137 32.9884C123.677 34.0232 124.481 34.7027 125.793 35.2432L126.689 35.5984L139.183 35.6448C149.824 35.6757 151.724 35.6448 152.017 35.4594C152.419 35.1969 153.531 32.6177 153.453 32.1081L153.407 31.7374L145.994 31.6602C137.886 31.583 137.87 31.5676 137.453 30.6564C137.006 29.6834 137.191 29.1737 140.913 20.7259C142.658 16.7876 144.064 13.4054 144.033 13.2355L143.986 12.8957L137.083 12.8494L130.179 12.8185L129.793 13.1583Z" fill="white" fill-opacity="0.7"/>
<path d="M5.40731 15.166C5.33009 15.2741 4.37257 17.3745 3.29148 19.8301C1.91697 23.0116 1.36098 24.4479 1.39187 24.7722L1.4382 25.2509L4.83589 25.3282C6.70461 25.3745 8.32623 25.4672 8.43434 25.5289C8.52701 25.6062 8.61967 25.7606 8.61967 25.8842C8.61967 25.9923 7.7548 28.0463 6.68917 30.4401C5.62353 32.834 4.75867 34.8726 4.75867 34.9961C4.75867 35.1042 4.86677 35.305 5.00577 35.4286C5.22199 35.6448 6.44206 35.6757 16.1718 35.6757C24.7432 35.6757 27.1525 35.6293 27.2606 35.4749C27.5231 35.1506 31.4768 26.193 31.4768 25.9459C31.4614 25.2355 31.7857 25.2509 21.5 25.1737C13.1139 25.112 11.8011 25.0656 11.6776 24.8648C11.5695 24.695 12.0637 23.4131 13.4845 20.1699C15.1988 16.2934 15.4305 15.6757 15.276 15.3513L15.1062 14.9807H10.334C6.70461 14.9807 5.53087 15.027 5.40731 15.166Z" fill="white" fill-opacity="0.7"/>
</svg>
