<svg width="131" height="40" viewBox="0 0 131 40" fill="none" xmlns="http://www.w3.org/2000/svg">
<g opacity="0.7" clip-path="url(#clip0_332_1862)">
<path d="M33.4336 32.3694C33.4336 31.9256 33.8774 31.4818 35.2059 31.4818C36.3154 31.4818 36.7738 31.9256 36.9052 32.1475C37.1125 32.5154 37.349 32.7373 37.7928 32.7373H39.638C40.0088 32.7373 40.2307 32.5154 40.2307 32.1475C40.2307 30.6702 38.6044 29.0439 35.2059 29.0439C31.5855 29.0439 30.0351 30.5972 30.0351 32.3694C30.0351 36.5067 37.2001 35.1023 37.2001 36.5797C37.2001 37.0234 36.6833 37.5402 35.2059 37.5402C33.7285 37.5402 33.2847 37.0964 33.0628 36.7286C32.8584 36.3724 32.622 36.1359 32.1782 36.1359H30.33C29.9621 36.1359 29.7402 36.3578 29.7402 36.7286C29.7402 38.3519 31.3665 39.9782 35.2059 39.9782C38.9723 39.9782 40.5986 38.3519 40.5986 36.5797C40.5986 32.4424 33.4336 33.8468 33.4336 32.3694Z" fill="white"/>
<path d="M51.457 29.8585C51.457 29.5607 51.2351 29.3417 50.9402 29.3417H41.4862C41.1884 29.3417 40.9694 29.5607 40.9694 29.8585V31.3358C40.9694 31.6307 41.1884 31.8526 41.4862 31.8526H44.5869V39.1636C44.5869 39.4614 44.8088 39.6833 45.1037 39.6833H47.3198C47.6176 39.6833 47.8365 39.4614 47.8365 39.1636V31.8526H50.9402C51.2351 31.8526 51.457 31.6307 51.457 31.3358V29.8585Z" fill="white"/>
<path d="M59.9241 39.1636C60.0409 39.4614 60.292 39.6833 60.5869 39.6833H63.0979C63.3957 39.6833 63.603 39.4614 63.4687 39.1636L59.3314 29.8439C59.2001 29.5461 58.9636 29.3417 58.6658 29.3417H55.638C55.3431 29.3417 55.1066 29.5607 54.9723 29.8585L50.838 39.1636C50.7037 39.4614 50.911 39.6833 51.2059 39.6833H53.5709C53.8658 39.6833 54.1168 39.4614 54.2336 39.1636L54.7533 37.8351H59.4044L59.9241 39.1636ZM57.0424 32.4424H57.1884L58.3709 35.3971H55.7869L57.0424 32.4424Z" fill="white"/>
<path d="M71.1212 29.8585C71.1212 29.5607 70.8993 29.3417 70.6044 29.3417H64.5461C64.2512 29.3417 64.0293 29.5607 64.0293 29.8585V31.3358C64.0293 31.6307 64.2512 31.8526 64.5461 31.8526H65.9504V37.1694H64.5461C64.2512 37.1694 64.0293 37.3913 64.0293 37.6862V39.1636C64.0293 39.4614 64.2512 39.6833 64.5461 39.6833H70.6044C70.8993 39.6833 71.1212 39.4614 71.1212 39.1636V37.6862C71.1212 37.3913 70.8993 37.1694 70.6044 37.1694H69.2001V31.8526H70.6044C70.8993 31.8526 71.1212 31.6307 71.1212 31.3358V29.8585Z" fill="white"/>
<path d="M73.2643 39.6833H77.9183C81.9066 39.6833 83.9738 37.6132 83.9738 34.5125C83.9738 31.4088 81.9066 29.3417 77.9183 29.3417H73.2643C72.9694 29.3417 72.7475 29.5607 72.7475 29.8585V39.1636C72.7475 39.4614 72.9694 39.6833 73.2643 39.6833ZM75.9971 37.3183V31.7037H77.9183C79.6176 31.7037 80.5752 32.6643 80.5752 34.5125C80.5752 36.3577 79.6176 37.3183 77.9183 37.3183H75.9971Z" fill="white"/>
<path d="M94.4643 35.1023C94.4643 35.1023 96.4584 34.6585 96.4584 32.7373C96.4584 30.892 94.9081 29.3417 91.6555 29.3417H86.2657C85.9679 29.3417 85.746 29.5607 85.746 29.8585V39.1636C85.746 39.4614 85.9679 39.6833 86.2657 39.6833H88.4818C88.7767 39.6833 88.9986 39.4614 88.9986 39.1636V36.1358H90.9168C91.7314 36.1358 92.0117 36.4307 92.2482 36.8745L93.5037 39.1636C93.6672 39.4614 93.8716 39.6833 94.4643 39.6833H96.7533C97.1241 39.6833 97.2409 39.3855 97.1241 39.1636L95.8687 36.8745C95.13 35.5461 94.4643 35.2512 94.4643 35.2512V35.1023ZM88.9986 33.7738V31.7037H91.6555C92.6161 31.7037 93.0599 32.1475 93.0599 32.7373C93.0599 33.33 92.6161 33.7738 91.6555 33.7738H88.9986Z" fill="white"/>
<path d="M104.999 29.8585C104.999 29.5607 104.777 29.3417 104.482 29.3417H98.4234C98.1285 29.3417 97.9066 29.5607 97.9066 29.8585V31.3358C97.9066 31.6307 98.1285 31.8526 98.4234 31.8526H99.8278V37.1694H98.4234C98.1285 37.1694 97.9066 37.3913 97.9066 37.6862V39.1636C97.9066 39.4614 98.1285 39.6833 98.4234 39.6833H104.482C104.777 39.6833 104.999 39.4614 104.999 39.1636V37.6862C104.999 37.3913 104.777 37.1694 104.482 37.1694H103.077V31.8526H104.482C104.777 31.8526 104.999 31.6307 104.999 31.3358V29.8585Z" fill="white"/>
<path d="M112.237 29.0439C108.321 29.0439 106.178 31.187 106.178 34.5125C106.178 37.8351 108.321 39.9782 112.237 39.9782C115.781 39.9782 117.702 38.057 117.702 36.2848C117.702 35.914 117.48 35.6921 117.112 35.6921H115.264C114.823 35.6921 114.587 35.914 114.38 36.2848C114.009 36.9475 113.419 37.5402 112.237 37.5402C110.61 37.5402 109.577 36.5067 109.577 34.5125C109.577 32.5154 110.61 31.4818 112.237 31.4818C113.346 31.4818 113.863 31.9986 114.231 32.5913C114.453 32.9592 114.675 33.1811 115.118 33.1811H116.964C117.334 33.1811 117.556 32.9592 117.556 32.5913C117.556 30.8921 115.708 29.0439 112.237 29.0439Z" fill="white"/>
<path d="M130.114 29.8585C130.114 29.5607 129.892 29.3417 129.597 29.3417H127.381C127.083 29.3417 126.861 29.5607 126.861 29.8585V33.33H122.578V29.8585C122.578 29.5607 122.356 29.3417 122.061 29.3417H119.845C119.55 29.3417 119.329 29.5607 119.329 29.8585V39.1636C119.329 39.4614 119.55 39.6833 119.845 39.6833H122.061C122.356 39.6833 122.578 39.4614 122.578 39.1636V35.8409H126.861V39.1636C126.861 39.4614 127.083 39.6833 127.381 39.6833H129.597C129.892 39.6833 130.114 39.4614 130.114 39.1636V29.8585Z" fill="white"/>
<path fill-rule="evenodd" clip-rule="evenodd" d="M1.04279 11.2669C1.04279 10.0199 2.03977 9.00904 3.29269 9.00904H7.79956V13.5136H5.5473V31.5382H23.5654V29.2794H28.0699V33.7862C28.0699 35.0288 27.0434 36.0362 25.8121 36.0362H3.30061C2.05365 36.0362 1.04279 35.0097 1.04279 33.7783V11.2669ZM10.0518 2.25783C10.0518 1.01086 11.0783 0 12.3097 0H34.8211C36.0681 0 37.0789 1.02649 37.0789 2.25783V24.7693C37.0789 26.0163 36.0524 27.0271 34.8211 27.0271H12.3097C11.0627 27.0271 10.0518 26.0006 10.0518 24.7693V2.25783ZM14.5563 4.50452H32.5744V22.5226H14.5563V4.50452Z" fill="white"/>
<path fill-rule="evenodd" clip-rule="evenodd" d="M20.7693 12.4173C19.3401 10.4769 17.4013 9.22456 16.5972 8.75807C16.5764 8.74618 16.5551 8.73676 16.5334 8.73004C16.3641 8.67688 16.1754 8.77803 16.1387 8.95992C15.7393 10.9595 15.5426 13.0706 15.9891 15.0804C16.4544 17.1737 17.6713 18.8529 19.5974 19.8298C18.5444 18.2776 17.834 16.6644 17.3698 14.8574C17.3144 14.6412 17.5427 14.7031 17.6075 14.8393C18.3045 16.3154 19.1326 17.6025 20.2347 18.8194C20.3166 18.9098 20.4017 18.9962 20.4871 19.0805C20.0451 17.6436 19.7081 15.4345 20.5586 12.969C20.6226 12.7833 20.6939 12.5997 20.7693 12.4173ZM23.4565 20.0177C25.1425 19.5286 26.731 18.5519 27.9725 17.3276C29.8941 15.4331 31.0123 12.8966 31.5634 10.2964C31.9389 8.52483 32.0826 6.68982 31.988 4.8815C31.9785 4.69782 31.8533 4.5563 31.6938 4.50651C31.6042 4.47825 31.5037 4.47915 31.4066 4.51772C18.3305 9.71123 20.5092 17.544 21.4765 19.8103C21.5991 19.7056 21.734 19.5844 21.8823 19.4499C22.315 19.0417 22.7296 18.6149 23.1277 18.1733C26.0437 14.9393 28.286 11.1791 30.4083 7.40615C30.44 7.34963 30.5088 7.33034 30.5633 7.36017C30.6149 7.38865 30.6353 7.45145 30.6118 7.50393C29.8405 9.23376 28.7221 12.0495 27.2816 14.5098C25.5333 17.4956 23.4997 20.0052 23.4565 20.0177Z" fill="white"/>
</g>
<defs>
<clipPath id="clip0_332_1862">
<rect width="129.343" height="40" fill="white" transform="translate(0.828461)"/>
</clipPath>
</defs>
</svg>
